<!DOCTYPE svg PUBLIC "-//W3C//DTD SVG 1.1//EN" "http://www.w3.org/Graphics/SVG/1.1/DTD/svg11.dtd">

<!-- Uploaded to: SVG Repo, www.svgrepo.com, Transformed by: SVG Repo Mixer Tools -->
<svg version="1.1" id="Capa_1" xmlns="http://www.w3.org/2000/svg" xmlns:xlink="http://www.w3.org/1999/xlink" viewBox="-5.8 -5.8 69.60 69.60" xml:space="preserve" width="256px" height="256px" fill="#000000" transform="rotate(45)">

<g id="SVGRepo_bgCarrier" stroke-width="0">

<path transform="translate(-5.8, -5.8), scale(2.175)" d="M16,28.492969943210483C18.482945080882892,28.857784684108726,20.1017938390422,25.904869068889177,22.02449663188098,24.292008244060458C23.785804084700523,22.814534033427375,25.58840943031993,21.480638215213936,26.734908395310608,19.4879831748924C28.133262126522904,17.057595799291697,29.650568770032287,14.464885286015383,29.277611544850988,11.685842490148488C28.873052010970454,8.671319155512894,27.00764660313813,6.01332385249375,24.666056177271493,4.072196955815986C22.217838920821563,2.0426787647144224,19.161310951717912,0.3342850556913157,16.000000000000004,0.6789949182420969C12.940369874732399,1.0126174868679674,11.071182590807267,3.9803489576461075,8.606239679104133,5.823361970021784C6.187556313702777,7.631787185099606,1.9321208311930906,8.346620619110864,1.7161407138414688,11.35889277970779C1.484920559059555,14.583717563391698,5.61601804112603,16.216191277729692,7.682810441414267,18.702418704887176C8.83567176014218,20.08924179845504,9.970067645348202,21.317988859762316,11.137668091204015,22.69242573059688C12.812099581310681,24.66347703145709,13.441207515894762,28.11701107714918,16,28.492969943210483" fill="#7ed0ec" strokewidth="0"/>

</g>

<g id="SVGRepo_tracerCarrier" stroke-linecap="round" stroke-linejoin="round"/>

<g id="SVGRepo_iconCarrier"> <g> <circle style="fill:#E5B55B;" cx="29" cy="9" r="9"/> <polygon style="fill:#E5B55B;" points="38.001,47 20,47 22,29 36.001,29 "/> <rect x="14" y="53" style="fill:#BA8100;" width="30" height="5"/> <path style="fill:#D9A72E;" d="M42,53H16v-2.843C16,48.413,17.413,47,19.157,47h19.686C40.587,47,42,48.413,42,50.157V53z"/> <path style="fill:#F9C97D;" d="M25,9c-0.552,0-1-0.447-1-1c0-2.206,1.794-4,4-4c0.552,0,1,0.447,1,1s-0.448,1-1,1 c-1.103,0-2,0.897-2,2C26,8.553,25.552,9,25,9z"/> <polygon style="fill:#BE8400;" points="20.556,42 37.445,42 36.89,37 21.111,37 "/> <path style="fill:#BE8400;" d="M38.5,29h-19c-1.925,0-3.5-1.575-3.5-3.5v0c0-1.925,1.575-3.5,3.5-3.5h19c1.925,0,3.5,1.575,3.5,3.5 v0C42,27.425,40.425,29,38.5,29z"/> <path style="fill:#D9A72E;" d="M29,18c-1.439,0-2.794-0.346-4-0.947V22h8v-4.947C31.794,17.654,30.439,18,29,18z"/> </g> </g>

</svg>
